<svg xmlns="http://www.w3.org/2000/svg" width="200" height="200" viewBox="0 0 200 200" version="1.1"><path d="M -0 100.005 C -0 200.010, 0 200.010, 100.250 199.755 C 200.500 199.500, 200.500 199.500, 200.755 99.750 C 201.010 0, 201.010 0, 100.505 0 C 0 0, 0 0, -0 100.005 M 0.481 100.500 C 0.481 155.500, 0.602 178.147, 0.750 150.826 C 0.898 123.506, 0.898 78.506, 0.750 50.826 C 0.602 23.147, 0.481 45.500, 0.481 100.500 M 92 22.136 C 79.393 24.203, 65.675 33.499, 59.105 44.427 C 44.484 68.750, 53.835 100.503, 79.146 112.479 C 112.877 128.439, 150.828 102.271, 147.720 65.196 C 147.170 58.638, 143.584 47, 142.113 47 C 141.705 47, 140.642 48.528, 139.751 50.395 C 138.309 53.420, 138.289 54.309, 139.566 58.554 C 145.082 76.882, 135.127 98.559, 117.485 106.636 C 90.059 119.192, 59 99.471, 59 69.500 C 59 49.183, 73.344 32.482, 93.905 28.860 C 102.287 27.384, 111.634 29.100, 119.927 33.639 C 125.044 36.440, 127.030 37.029, 129.677 36.533 C 131.504 36.190, 133 35.533, 133 35.073 C 133 31.879, 116.358 23.544, 107 22.052 C 99.702 20.888, 99.607 20.888, 92 22.136 M 86.246 44.509 C 69 56.017, 69 56.017, 69.014 70.259 C 69.021 78.091, 69.292 85.488, 69.616 86.695 C 70.161 88.729, 71.528 88.006, 88.242 76.838 C 106.280 64.786, 106.280 64.786, 105.646 56.643 C 105.297 52.164, 105.009 45.013, 105.006 40.750 C 105.003 36.487, 104.660 33, 104.246 33 C 103.831 33, 95.731 38.179, 86.246 44.509 M 128.827 39.343 C 122.406 41.087, 116.873 42.793, 116.531 43.136 C 116.189 43.478, 118.320 45.118, 121.267 46.781 C 126.257 49.598, 126.751 50.223, 128.470 55.903 C 129.486 59.256, 130.591 62, 130.927 62 C 131.490 62, 144 37.590, 144 36.490 C 144 35.528, 140.332 36.217, 128.827 39.343 M 86.250 47.723 C 72 57.314, 72 57.314, 72 70.772 C 72 84.230, 72 84.230, 74.750 82.440 C 76.263 81.456, 83.294 76.796, 90.376 72.085 C 103.253 63.520, 103.253 63.520, 102.626 56.109 C 102.282 52.033, 102 46.291, 102 43.349 C 102 40.407, 101.662 38.030, 101.250 38.066 C 100.838 38.103, 94.088 42.449, 86.250 47.723 M 94.635 53.073 C 92.049 55.107, 90.998 59, 93.035 59 C 95.440 59, 99 55.649, 99 53.385 C 99 50.458, 98.045 50.390, 94.635 53.073 M 80.750 58.137 C 76.145 61.142, 76 61.387, 76 66.166 C 76 71.096, 76 71.096, 80.430 68.048 C 85.662 64.449, 86 64.385, 86 67 C 86 69.438, 86.402 69.466, 90.096 67.284 C 91.953 66.187, 93 64.745, 93 63.284 C 93 60.811, 91.124 60.276, 89.200 62.200 C 87.565 63.835, 86.219 62.268, 85.821 58.269 C 85.500 55.038, 85.500 55.038, 80.750 58.137 M 89.644 78.845 C 79.967 85.255, 72.038 90.752, 72.024 91.061 C 72.011 91.370, 78.357 94.375, 86.126 97.740 C 100.253 103.858, 100.253 103.858, 118.272 91.819 C 136.290 79.779, 136.290 79.779, 128.895 76.518 C 105.197 66.070, 109.298 65.827, 89.644 78.845 M 124 139.500 C 124 154, 124 154, 126.458 154 C 128.832 154, 128.926 153.735, 129.208 146.250 C 129.500 138.500, 129.500 138.500, 132.500 138.500 C 135.500 138.500, 135.500 138.500, 135.792 146.250 C 136.074 153.735, 136.168 154, 138.542 154 C 140.942 154, 141 153.816, 141 146.223 C 141 136.186, 139.649 134, 133.443 134 C 129 134, 129 134, 129 129.500 C 129 125.367, 128.796 125, 126.500 125 C 124 125, 124 125, 124 139.500 M 58 141 C 58 154, 58 154, 60.500 154 C 62.975 154, 63 153.912, 63 145.326 C 63 136.651, 63 136.651, 65.250 138.778 C 66.487 139.947, 69.300 143.835, 71.500 147.417 C 74.481 152.271, 76.073 153.938, 77.750 153.964 C 79.970 154, 80 153.825, 80 141 C 80 128, 80 128, 77.542 128 C 75.170 128, 75.074 128.269, 74.792 135.679 C 74.500 143.358, 74.500 143.358, 68.726 135.679 C 64.252 129.729, 62.395 128, 60.476 128 C 58 128, 58 128, 58 141 M 86.697 135.948 C 87.079 137.411, 88.234 137.970, 91.344 138.198 C 94.342 138.417, 95.574 138.982, 95.815 140.250 C 96.082 141.657, 95.433 142, 92.508 142 C 86.809 142, 85 143.445, 85 148 C 85 152.985, 87.053 154.203, 94.776 153.799 C 100.500 153.500, 100.500 153.500, 100.794 145.628 C 101.175 135.447, 100.073 134, 91.939 134 C 86.731 134, 86.235 134.184, 86.697 135.948 M 107.571 135.571 C 106.707 136.436, 106 138.467, 106 140.084 C 106 142.580, 106.682 143.357, 110.500 145.212 C 116.494 148.124, 116.519 150.322, 110.552 149.848 C 107.023 149.567, 106.013 149.844, 105.661 151.189 C 105.016 153.653, 105.749 154, 111.595 154 C 117.692 154, 120 152.329, 120 147.916 C 120 145.420, 119.318 144.643, 115.500 142.788 C 109.811 140.024, 109.599 138, 115 138 C 118.333 138, 119 137.667, 119 136 C 119 134.271, 118.333 134, 114.071 134 C 110.924 134, 108.575 134.568, 107.571 135.571 M 90.667 145.667 C 90.300 146.033, 90 147.158, 90 148.167 C 90 149.537, 90.758 150, 93 150 C 95.533 150, 96 149.611, 96 147.500 C 96 145.548, 95.489 145, 93.667 145 C 92.383 145, 91.033 145.300, 90.667 145.667" stroke="none" fill="#143447" fill-rule="evenodd"/><path d="M 92 22.136 C 79.393 24.203, 65.675 33.499, 59.105 44.427 C 44.484 68.750, 53.835 100.503, 79.146 112.479 C 112.877 128.439, 150.828 102.271, 147.720 65.196 C 147.170 58.638, 143.584 47, 142.113 47 C 141.705 47, 140.642 48.528, 139.751 50.395 C 138.309 53.420, 138.289 54.309, 139.566 58.554 C 145.082 76.882, 135.127 98.559, 117.485 106.636 C 90.059 119.192, 59 99.471, 59 69.500 C 59 49.183, 73.344 32.482, 93.905 28.860 C 102.287 27.384, 111.634 29.100, 119.927 33.639 C 125.044 36.440, 127.030 37.029, 129.677 36.533 C 131.504 36.190, 133 35.533, 133 35.073 C 133 31.879, 116.358 23.544, 107 22.052 C 99.702 20.888, 99.607 20.888, 92 22.136 M 86.246 44.509 C 69 56.017, 69 56.017, 69.014 70.259 C 69.021 78.091, 69.292 85.488, 69.616 86.695 C 70.161 88.729, 71.528 88.006, 88.242 76.838 C 106.280 64.786, 106.280 64.786, 105.646 56.643 C 105.297 52.164, 105.009 45.013, 105.006 40.750 C 105.003 36.487, 104.660 33, 104.246 33 C 103.831 33, 95.731 38.179, 86.246 44.509 M 128.827 39.343 C 122.406 41.087, 116.873 42.793, 116.531 43.136 C 116.189 43.478, 118.320 45.118, 121.267 46.781 C 126.257 49.598, 126.751 50.223, 128.470 55.903 C 129.486 59.256, 130.591 62, 130.927 62 C 131.490 62, 144 37.590, 144 36.490 C 144 35.528, 140.332 36.217, 128.827 39.343 M 86.250 47.723 C 72 57.314, 72 57.314, 72 70.772 C 72 84.230, 72 84.230, 74.750 82.440 C 76.263 81.456, 83.294 76.796, 90.376 72.085 C 103.253 63.520, 103.253 63.520, 102.626 56.109 C 102.282 52.033, 102 46.291, 102 43.349 C 102 40.407, 101.662 38.030, 101.250 38.066 C 100.838 38.103, 94.088 42.449, 86.250 47.723 M 94.635 53.073 C 92.049 55.107, 90.998 59, 93.035 59 C 95.440 59, 99 55.649, 99 53.385 C 99 50.458, 98.045 50.390, 94.635 53.073 M 80.750 58.137 C 76.145 61.142, 76 61.387, 76 66.166 C 76 71.096, 76 71.096, 80.430 68.048 C 85.662 64.449, 86 64.385, 86 67 C 86 69.438, 86.402 69.466, 90.096 67.284 C 91.953 66.187, 93 64.745, 93 63.284 C 93 60.811, 91.124 60.276, 89.200 62.200 C 87.565 63.835, 86.219 62.268, 85.821 58.269 C 85.500 55.038, 85.500 55.038, 80.750 58.137 M 89.644 78.845 C 79.967 85.255, 72.038 90.752, 72.024 91.061 C 72.011 91.370, 78.357 94.375, 86.126 97.740 C 100.253 103.858, 100.253 103.858, 118.272 91.819 C 136.290 79.779, 136.290 79.779, 128.895 76.518 C 105.197 66.070, 109.298 65.827, 89.644 78.845 M 124 139.500 C 124 154, 124 154, 126.458 154 C 128.832 154, 128.926 153.735, 129.208 146.250 C 129.500 138.500, 129.500 138.500, 132.500 138.500 C 135.500 138.500, 135.500 138.500, 135.792 146.250 C 136.074 153.735, 136.168 154, 138.542 154 C 140.942 154, 141 153.816, 141 146.223 C 141 136.186, 139.649 134, 133.443 134 C 129 134, 129 134, 129 129.500 C 129 125.367, 128.796 125, 126.500 125 C 124 125, 124 125, 124 139.500 M 58 141 C 58 154, 58 154, 60.500 154 C 62.975 154, 63 153.912, 63 145.326 C 63 136.651, 63 136.651, 65.250 138.778 C 66.487 139.947, 69.300 143.835, 71.500 147.417 C 74.481 152.271, 76.073 153.938, 77.750 153.964 C 79.970 154, 80 153.825, 80 141 C 80 128, 80 128, 77.542 128 C 75.170 128, 75.074 128.269, 74.792 135.679 C 74.500 143.358, 74.500 143.358, 68.726 135.679 C 64.252 129.729, 62.395 128, 60.476 128 C 58 128, 58 128, 58 141 M 86.697 135.948 C 87.079 137.411, 88.234 137.970, 91.344 138.198 C 94.342 138.417, 95.574 138.982, 95.815 140.250 C 96.082 141.657, 95.433 142, 92.508 142 C 86.809 142, 85 143.445, 85 148 C 85 152.985, 87.053 154.203, 94.776 153.799 C 100.500 153.500, 100.500 153.500, 100.794 145.628 C 101.175 135.447, 100.073 134, 91.939 134 C 86.731 134, 86.235 134.184, 86.697 135.948 M 107.571 135.571 C 106.707 136.436, 106 138.467, 106 140.084 C 106 142.580, 106.682 143.357, 110.500 145.212 C 116.494 148.124, 116.519 150.322, 110.552 149.848 C 107.023 149.567, 106.013 149.844, 105.661 151.189 C 105.016 153.653, 105.749 154, 111.595 154 C 117.692 154, 120 152.329, 120 147.916 C 120 145.420, 119.318 144.643, 115.500 142.788 C 109.811 140.024, 109.599 138, 115 138 C 118.333 138, 119 137.667, 119 136 C 119 134.271, 118.333 134, 114.071 134 C 110.924 134, 108.575 134.568, 107.571 135.571 M 90.667 145.667 C 90.300 146.033, 90 147.158, 90 148.167 C 90 149.537, 90.758 150, 93 150 C 95.533 150, 96 149.611, 96 147.500 C 96 145.548, 95.489 145, 93.667 145 C 92.383 145, 91.033 145.300, 90.667 145.667" stroke="none" fill="#f20662" fill-rule="evenodd"/></svg>